<?xml version="1.0" standalone="no"?>
<!DOCTYPE svg PUBLIC "-//W3C//DTD SVG 20010904//EN"
 "http://www.w3.org/TR/2001/REC-SVG-20010904/DTD/svg10.dtd">
<svg version="1.0" xmlns="http://www.w3.org/2000/svg"
 viewBox="0 0 2600.000000 2600.000000"
 preserveAspectRatio="xMidYMid meet">
<metadata>
Created by potrace 1.15, written by Peter Selinger 2001-2017
</metadata>
<g transform="translate(0.000000,2600.000000) scale(0.100000,-0.100000)"
fill="#000000" stroke="none">
<path d="M14735 20870 c-1486 -57 -2888 -667 -3934 -1712 -482 -481 -842 -979
-1136 -1573 -642 -1299 -784 -2785 -399 -4185 191 -695 511 -1355 937 -1933
l80 -109 -360 -360 -359 -359 -90 17 c-103 19 -304 22 -405 5 -187 -31 -384
-115 -529 -225 -56 -42 -617 -597 -1626 -1608 -1628 -1630 -1590 -1591 -1679
-1768 -198 -396 -154 -889 113 -1250 74 -100 367 -392 469 -467 251 -185 586
-267 891 -218 109 18 263 65 347 107 183 91 137 48 1773 1682 1011 1009 1566
1570 1608 1626 110 145 194 342 225 529 17 99 14 302 -6 405 l-16 90 359 359
360 360 109 -80 c1131 -833 2542 -1239 3938 -1132 1095 83 2135 461 3010 1093
1491 1077 2393 2764 2454 4591 28 837 -111 1636 -421 2415 -80 200 -252 556
-358 740 -519 897 -1283 1661 -2180 2180 -184 106 -540 278 -740 358 -612 243
-1295 393 -1895 417 -288 11 -355 12 -540 5z m560 -1250 c626 -53 1158 -193
1682 -445 498 -239 922 -543 1314 -942 227 -230 378 -415 553 -677 762 -1135
984 -2557 607 -3881 -383 -1343 -1370 -2461 -2656 -3008 -832 -354 -1739 -457
-2645 -301 -618 106 -1239 354 -1770 707 -570 378 -1066 898 -1425 1492 -85
140 -268 507 -324 650 -323 824 -414 1674 -270 2539 192 1154 838 2215 1784
2931 718 544 1558 862 2470 934 148 12 542 12 680 1z"/>
</g>
</svg>
