<?xml version="1.0" standalone="no"?>
<!DOCTYPE svg PUBLIC "-//W3C//DTD SVG 20010904//EN"
 "http://www.w3.org/TR/2001/REC-SVG-20010904/DTD/svg10.dtd">
<svg version="1.0" xmlns="http://www.w3.org/2000/svg"
 viewBox="0 0 2600.000000 2600.000000"
 preserveAspectRatio="xMidYMid meet">
<metadata>
Created by potrace 1.15, written by Peter Selinger 2001-2017
</metadata>
<g transform="translate(0.000000,2600.000000) scale(0.100000,-0.100000)"
fill="#000000" stroke="none">
<path d="M12355 20526 c-127 -30 -214 -75 -303 -160 -31 -29 -669 -872 -1474
-1948 l-1421 -1898 -1906 0 c-1660 0 -1914 -2 -1964 -15 -177 -46 -293 -179
-318 -362 -6 -51 -9 -469 -7 -1218 l3 -1140 22 -57 c39 -104 116 -193 205
-239 87 -44 138 -49 599 -49 l437 0 11 -62 c6 -35 258 -1528 561 -3318 303
-1790 556 -3273 561 -3295 26 -95 104 -194 194 -246 113 -65 -389 -60 5960
-57 l5770 3 56 23 c124 50 218 143 254 252 9 27 269 1544 579 3372 l562 3323
465 5 c496 6 479 4 586 58 52 27 123 96 156 153 60 101 58 55 55 1355 l-3
1189 -23 55 c-46 113 -129 196 -242 242 l-55 23 -1935 3 -1935 3 -1410 1887
c-881 1178 -1435 1911 -1478 1954 -81 81 -190 138 -309 162 -97 20 -149 20
-245 0 -405 -83 -620 -519 -438 -889 23 -46 419 -582 1174 -1590 l1139 -1520
-2751 -3 c-1513 -1 -2752 0 -2754 2 -2 2 501 678 1118 1502 618 825 1139 1525
1160 1557 95 147 120 353 63 523 -63 188 -211 336 -401 400 -95 32 -230 40
-318 20z m-3835 -4851 c0 -3 -21 -33 -46 -67 -263 -354 -121 -839 288 -986 63
-23 89 -26 198 -26 97 -1 137 3 180 18 84 28 180 81 236 130 29 26 190 231
385 490 l334 446 3387 0 3388 0 328 -437 c205 -274 352 -460 391 -495 193
-178 498 -208 730 -71 190 113 302 307 305 528 1 157 -31 256 -129 396 l-55
79 1360 0 1360 0 0 -700 0 -700 -7680 0 -7680 0 0 700 0 700 1360 0 c748 0
1360 -2 1360 -5z m11366 -2252 c-5 -17 -1036 -6105 -1036 -6117 0 -3 -2415 -5
-5367 -4 l-5367 3 -518 3055 c-284 1680 -517 3061 -518 3068 0 9 1288 12 6406
12 6096 0 6405 -1 6400 -17z"/>
<path d="M11103 12625 c-198 -43 -361 -207 -402 -403 -8 -37 -11 -581 -11
-1835 0 -1948 -3 -1831 57 -1957 32 -67 148 -185 219 -222 107 -57 272 -75
385 -42 174 51 312 189 363 363 14 49 16 237 16 1864 l0 1808 -25 76 c-62 183
-202 308 -390 348 -85 18 -130 18 -212 0z"/>
<path d="M13475 12628 c-27 -5 -86 -27 -131 -48 -96 -46 -196 -144 -238 -233
-59 -125 -56 -23 -56 -1948 0 -1233 3 -1783 11 -1825 36 -194 188 -358 380
-409 72 -20 202 -19 270 1 175 52 295 165 358 338 l26 71 0 1810 0 1810 -22
70 c-80 254 -340 412 -598 363z"/>
<path d="M15830 12624 c-205 -44 -362 -204 -405 -412 -13 -63 -15 -296 -13
-1855 l3 -1782 22 -65 c75 -218 271 -360 497 -360 149 0 262 46 366 149 76 75
131 177 149 275 8 41 11 608 11 1825 0 1507 -2 1775 -15 1827 -37 156 -140
287 -279 354 -124 59 -213 71 -336 44z"/>
</g>
</svg>
